<?xml version="1.0" encoding="UTF-8" standalone="no"?>
<!-- Created with Inkscape (http://www.inkscape.org/) -->

<svg
   xmlns:dc="http://purl.org/dc/elements/1.1/"
   xmlns:cc="http://creativecommons.org/ns#"
   xmlns:rdf="http://www.w3.org/1999/02/22-rdf-syntax-ns#"
   xmlns:svg="http://www.w3.org/2000/svg"
   xmlns="http://www.w3.org/2000/svg"
   xmlns:xlink="http://www.w3.org/1999/xlink"
   xmlns:sodipodi="http://sodipodi.sourceforge.net/DTD/sodipodi-0.dtd"
   xmlns:inkscape="http://www.inkscape.org/namespaces/inkscape"
   width="1024"
   height="1024"
   viewBox="0 0 1024 1024"
   id="svg2"
   version="1.1"
   inkscape:version="0.91 r13725"
   sodipodi:docname="icon.svg"
   style="enable-background:new">
  <defs
     id="defs4">
    <color-profile
       name="Generic-RGB-Profile"
       xlink:href="/System/Library/ColorSync/Profiles/Generic RGB Profile.icc"
       id="color-profile4259" />
    <clipPath
       id="clipPath4169"
       clipPathUnits="userSpaceOnUse">
      <path
         inkscape:connector-curvature="0"
         id="path4171"
         d="M 0,192 192,192 192,0 0,0 0,192 Z" />
    </clipPath>
    <clipPath
       id="clipPath4181"
       clipPathUnits="userSpaceOnUse">
      <path
         inkscape:connector-curvature="0"
         id="path4183"
         d="M 0,192 192,192 192,0 0,0 0,192 Z" />
    </clipPath>
    <clipPath
       id="clipPath4189"
       clipPathUnits="userSpaceOnUse">
      <path
         inkscape:connector-curvature="0"
         id="path4191"
         d="m 20,172 152,0 0,-13 -152,0 0,13 z" />
    </clipPath>
    <clipPath
       id="clipPath4205"
       clipPathUnits="userSpaceOnUse">
      <path
         inkscape:connector-curvature="0"
         id="path4207"
         d="m 20,33 152,0 0,-13 -152,0 0,13 z" />
    </clipPath>
    <clipPath
       id="clipPath4221"
       clipPathUnits="userSpaceOnUse">
      <path
         inkscape:connector-curvature="0"
         id="path4223"
         d="M 0,192 192,192 192,0 0,0 0,192 Z" />
    </clipPath>
    <clipPath
       id="clipPath4229"
       clipPathUnits="userSpaceOnUse">
      <path
         inkscape:connector-curvature="0"
         id="path4231"
         d="m 44,144 104.16,0 0,-104.16 L 44,39.84 44,144 Z" />
    </clipPath>
    <clipPath
       id="clipPath4233"
       clipPathUnits="userSpaceOnUse">
      <path
         inkscape:connector-curvature="0"
         id="path4235"
         d="m 44,144 104.16,0 0,-104.16 L 44,39.84 44,144 Z" />
    </clipPath>
    <mask
       id="mask4237"
       height="1"
       width="1"
       y="0"
       x="0"
       maskUnits="userSpaceOnUse">
      <g
         id="g4239">
        <g
           id="g4241"
           clip-path="url(#clipPath4233)">
          <g
             id="g4243">
            <g
               id="g4245"
               transform="matrix(104.16,0,0,104.16,44.000004,39.840002)">
              <image
                 sodipodi:absref="/Users/gldraphael/Desktop/appicon/Desktop/Product_Icon_StickerSheet/material_template_ic_product_icon_192px_light_light_img0.png"
                 xlink:href="Desktop/Product_Icon_StickerSheet/material_template_ic_product_icon_192px_light_light_img0.png"
                 id="image4247"
                 transform="matrix(1,0,0,-1,0,1)"
                 preserveAspectRatio="none"
                 height="1"
                 width="1" />
            </g>
          </g>
        </g>
      </g>
    </mask>
    <mask
       id="mask4249"
       height="1"
       width="1"
       y="0"
       x="0"
       maskUnits="userSpaceOnUse">
      <image
         sodipodi:absref="/Users/gldraphael/Desktop/appicon/Desktop/Product_Icon_StickerSheet/material_template_ic_product_icon_192px_light_light_img1.png"
         xlink:href="Desktop/Product_Icon_StickerSheet/material_template_ic_product_icon_192px_light_light_img1.png"
         id="image4251"
         preserveAspectRatio="none"
         height="1"
         width="1" />
    </mask>
    <clipPath
       id="clipPath4275"
       clipPathUnits="userSpaceOnUse">
      <path
         inkscape:connector-curvature="0"
         id="path4277"
         d="M 0,192 192,192 192,0 0,0 0,192 Z" />
    </clipPath>
    <clipPath
       id="clipPath4283"
       clipPathUnits="userSpaceOnUse">
      <path
         inkscape:connector-curvature="0"
         id="path4285"
         d="m 56,136 80,0 0,-40.5 -80,0 0,40.5 z" />
    </clipPath>
    <clipPath
       id="clipPath4299"
       clipPathUnits="userSpaceOnUse">
      <path
         inkscape:connector-curvature="0"
         id="path4301"
         d="m 56,95.5 80,0 0,-40.5 -80,0 0,40.5 z" />
    </clipPath>
    <clipPath
       id="clipPath4315"
       clipPathUnits="userSpaceOnUse">
      <path
         inkscape:connector-curvature="0"
         id="path4317"
         d="m 32,172 c -6.6,0 -12,-5.4 -12,-12 l 0,0 0,-128 c 0,-6.6 5.4,-12 12,-12 l 0,0 128,0 c 6.6,0 12,5.4 12,12 l 0,0 0,128 c 0,6.6 -5.4,12 -12,12 l 0,0 -128,0 z" />
    </clipPath>
    <clipPath
       id="clipPath4323"
       clipPathUnits="userSpaceOnUse">
      <path
         inkscape:connector-curvature="0"
         id="path4325"
         d="m -32768,32767 65535,0 0,-65535 -65535,0 0,65535 z" />
    </clipPath>
    <radialGradient
       id="radialGradient4327"
       spreadMethod="pad"
       gradientTransform="matrix(144.69165,-144.69165,-144.69165,-144.69165,23.767599,168.06676)"
       gradientUnits="userSpaceOnUse"
       r="1"
       cy="0"
       cx="0"
       fy="0"
       fx="0">
      <stop
         id="stop4329"
         offset="0"
         style="stop-opacity:0.09999237;stop-color:#ffffff" />
      <stop
         id="stop4331"
         offset="1"
         style="stop-opacity:0;stop-color:#ffffff" />
    </radialGradient>
    <mask
       id="mask4333"
       height="1"
       width="1"
       y="0"
       x="0"
       maskUnits="userSpaceOnUse">
      <g
         id="g4335">
        <g
           id="g4337"
           clip-path="url(#clipPath4323)">
          <g
             id="g4339">
            <g
               id="g4341">
              <path
                 inkscape:connector-curvature="0"
                 id="path4343"
                 style="fill:url(#radialGradient4327);stroke:none"
                 d="m -32768,32767 65535,0 0,-65535 -65535,0 0,65535 z" />
            </g>
          </g>
        </g>
      </g>
    </mask>
    <radialGradient
       id="radialGradient4349"
       spreadMethod="pad"
       gradientTransform="matrix(144.69165,-144.69165,-144.69165,-144.69165,23.767599,168.06676)"
       gradientUnits="userSpaceOnUse"
       r="1"
       cy="0"
       cx="0"
       fy="0"
       fx="0">
      <stop
         id="stop4351"
         offset="0"
         style="stop-opacity:1;stop-color:#ffffff" />
      <stop
         id="stop4353"
         offset="1"
         style="stop-opacity:1;stop-color:#ffffff" />
    </radialGradient>
    <clipPath
       id="clipPath4361"
       clipPathUnits="userSpaceOnUse">
      <path
         inkscape:connector-curvature="0"
         id="path4363"
         d="M 0,192 192,192 192,0 0,0 0,192 Z" />
    </clipPath>
    <clipPath
       id="clipPath4371"
       clipPathUnits="userSpaceOnUse">
      <path
         inkscape:connector-curvature="0"
         id="path4373"
         d="M 0,192 192,192 192,0 0,0 0,192 Z" />
    </clipPath>
    <clipPath
       id="clipPath4379"
       clipPathUnits="userSpaceOnUse">
      <path
         inkscape:connector-curvature="0"
         id="path4381"
         d="M 0,192 192,192 192,0 0,0 0,192 Z" />
    </clipPath>
    <clipPath
       id="clipPath4387"
       clipPathUnits="userSpaceOnUse">
      <path
         inkscape:connector-curvature="0"
         id="path4389"
         d="M 0,192 192,192 192,0 0,0 0,192 Z" />
    </clipPath>
    <clipPath
       id="clipPath4391"
       clipPathUnits="userSpaceOnUse">
      <path
         inkscape:connector-curvature="0"
         id="path4393"
         d="M 0,192 192,192 192,0 0,0 0,192 Z" />
    </clipPath>
    <clipPath
       id="clipPath4395"
       clipPathUnits="userSpaceOnUse">
      <path
         inkscape:connector-curvature="0"
         id="path4397"
         d="M 192,192 0,192 0,0 l 192,0 0,192 z" />
    </clipPath>
    <clipPath
       id="clipPath4795"
       clipPathUnits="userSpaceOnUse">
      <path
         inkscape:connector-curvature="0"
         id="path4797"
         d="M 0,192 192,192 192,0 0,0 0,192 Z" />
    </clipPath>
    <clipPath
       id="clipPath4805"
       clipPathUnits="userSpaceOnUse">
      <path
         inkscape:connector-curvature="0"
         id="path4807"
         d="M -1.52588e-4,192 192,192 192,-1.83105e-4 l -192.000152588,0 0,192.000183105 z" />
    </clipPath>
    <clipPath
       id="clipPath4813"
       clipPathUnits="userSpaceOnUse">
      <path
         inkscape:connector-curvature="0"
         id="path4815"
         d="M -1.52588e-4,192 192,192 192,-1.83105e-4 l -192.000152588,0 0,192.000183105 z" />
    </clipPath>
    <clipPath
       id="clipPath4817"
       clipPathUnits="userSpaceOnUse">
      <path
         inkscape:connector-curvature="0"
         id="path4819"
         d="M 0,192 192,192 192,0 0,0 0,192 Z" />
    </clipPath>
    <clipPath
       id="clipPath4821"
       clipPathUnits="userSpaceOnUse">
      <path
         inkscape:connector-curvature="0"
         id="path4823"
         d="M 0,192 192,192 192,0 0,0 0,192 Z" />
    </clipPath>
    <clipPath
       id="clipPath4825"
       clipPathUnits="userSpaceOnUse">
      <path
         inkscape:connector-curvature="0"
         id="path4827"
         d="M 0,192 192,192 192,0 0,0 0,192 Z" />
    </clipPath>
    <clipPath
       id="clipPath4903"
       clipPathUnits="userSpaceOnUse">
      <path
         inkscape:connector-curvature="0"
         id="path4905"
         d="M 0,192 192,192 192,0 0,0 0,192 Z" />
    </clipPath>
    <clipPath
       id="clipPath4913"
       clipPathUnits="userSpaceOnUse">
      <path
         inkscape:connector-curvature="0"
         id="path4915"
         d="M 0,192 192,192 192,0 0,0 0,192 Z" />
    </clipPath>
    <clipPath
       id="clipPath4921"
       clipPathUnits="userSpaceOnUse">
      <path
         inkscape:connector-curvature="0"
         id="path4923"
         d="M 0,192 192,192 192,0 0,0 0,192 Z" />
    </clipPath>
  </defs>
  <sodipodi:namedview
     id="base"
     pagecolor="#ffffff"
     bordercolor="#666666"
     borderopacity="1.0"
     inkscape:pageopacity="0.0"
     inkscape:pageshadow="2"
     inkscape:zoom="0.35355339"
     inkscape:cx="52.187025"
     inkscape:cy="484.314"
     inkscape:document-units="px"
     inkscape:current-layer="layer3"
     showgrid="true"
     inkscape:window-width="1280"
     inkscape:window-height="703"
     inkscape:window-x="0"
     inkscape:window-y="1"
     inkscape:window-maximized="1"
     guidetolerance="10000"
     units="px"
     inkscape:snap-path-clip="true"
     inkscape:snap-path-mask="true"
     objecttolerance="10000"
     inkscape:snap-perpendicular="true"
     inkscape:snap-tangential="true">
    <inkscape:grid
       type="xygrid"
       id="grid5585"
       spacingx="0.8"
       spacingy="0.8" />
  </sodipodi:namedview>
  <metadata
     id="metadata7">
    <rdf:RDF>
      <cc:Work
         rdf:about="">
        <dc:format>image/svg+xml</dc:format>
        <dc:type
           rdf:resource="http://purl.org/dc/dcmitype/StillImage" />
        <dc:title></dc:title>
      </cc:Work>
    </rdf:RDF>
  </metadata>
  <g
     inkscape:groupmode="layer"
     id="layer2"
     inkscape:label="reference"
     style="display:inline"
     transform="translate(0,-28.362161)">
    <g
       id="g5569"
       transform="matrix(4.2666666,0,0,4.3166666,-2024.6523,-950.05404)">
      <g
         transform="matrix(1.25,0,0,-1.25,475,467.36221)"
         id="g4626">
        <g
           id="g4628"
           clip-path="url(#clipPath4169)">
          <g
             id="g4630"
             transform="translate(160,20)">
            <path
               d="m 0,0 -128,0 c -6.6,0 -12,5.4 -12,12 l 0,128 c 0,6.6 5.4,12 12,12 l 128,0 c 6.6,0 12,-5.4 12,-12 L 12,12 C 12,5.4 6.6,0 0,0"
               style="fill:#e0e0e0;fill-opacity:1;fill-rule:nonzero;stroke:none"
               id="path4632"
               inkscape:connector-curvature="0" />
          </g>
        </g>
      </g>
      <g
         transform="matrix(1.25,0,0,-1.25,475,467.36221)"
         id="g5224">
        <g
           id="g5226"
           clip-path="url(#clipPath4903)">
          <g
             id="g5228"
             transform="matrix(1,0,0,-1,0,192)">
            <g
               id="g5230">
              <g
                 id="g5232"
                 clip-path="url(#clipPath4913)">
                <g
                   id="g5234">
                  <g
                     id="g5236" />
                  <g
                     id="g5238">
                    <g
                       clip-path="url(#clipPath4921)"
                       id="g5240"
                       style="opacity:0.39999402">
                      <path
                         d="M 188,184 4,184 4,4 188,4 188,184 Z M 0,192 192,192 192,0 0,0 0,192 Z"
                         style="fill:#db4437;fill-opacity:1;fill-rule:nonzero;stroke:none"
                         id="path5242"
                         inkscape:connector-curvature="0" />
                    </g>
                  </g>
                </g>
              </g>
            </g>
          </g>
        </g>
      </g>
    </g>
  </g>
  <g
     inkscape:groupmode="layer"
     id="layer5"
     inkscape:label="back"
     style="display:none"
     transform="translate(0,-28.362161)">
    <path
       style="fill:#ffffff;fill-opacity:0;fill-rule:evenodd;stroke:#000000;stroke-width:0;stroke-linecap:butt;stroke-linejoin:miter;stroke-miterlimit:4;stroke-dasharray:none;stroke-opacity:1"
       d="m 475,242.3622 230,0 0,230.01083 -230,0 z"
       id="path5603"
       inkscape:connector-curvature="0"
       inkscape:export-xdpi="90"
       inkscape:export-ydpi="90"
       inkscape:export-filename="/Users/gldraphael/Desktop/test.png" />
  </g>
  <g
     inkscape:groupmode="layer"
     id="layer3"
     inkscape:label="logo"
     style="display:inline"
     transform="translate(0,-28.362161)">
    <g
       id="g4249"
       transform="matrix(1.0263472,0,0,1.0147792,-15.748503,-19.921197)">
      <g
         inkscape:export-ydpi="90"
         inkscape:export-xdpi="90"
         inkscape:export-filename="/Users/gldraphael/Desktop/test.png"
         transform="matrix(4.2666666,0,0,4.3166666,-1920.7016,-823.93022)"
         id="g4594">
        <g
           id="g7363">
          <g
             style="fill:#2196f3;fill-opacity:1"
             transform="matrix(1.25,0,0,-1.25,450.71429,438.79077)"
             id="g6434">
            <g
               style="fill:#2196f3;fill-opacity:1"
               id="g6436"
               clip-path="url(#clipPath4169)">
              <g
                 style="fill:#2196f3;fill-opacity:1"
                 id="g6438"
                 transform="translate(160,20)">
                <path
                   d="m 0,0 -128,0 c -6.6,0 -12,5.4 -12,12 l 0,128 c 0,6.6 5.4,12 12,12 l 128,0 c 6.6,0 12,-5.4 12,-12 L 12,12 C 12,5.4 6.6,0 0,0"
                   style="fill:#b71c1c;fill-opacity:1;fill-rule:nonzero;stroke:none"
                   id="path6440"
                   inkscape:connector-curvature="0" />
              </g>
            </g>
          </g>
          <g
             transform="matrix(1.25,0,0,-1.25,450.71429,438.79077)"
             id="g6442">
            <g
               id="g6444"
               clip-path="url(#clipPath4181)">
              <g
                 id="g6446">
                <g
                   id="g6448" />
                <g
                   id="g6450">
                  <g
                     clip-path="url(#clipPath4189)"
                     id="g6452"
                     style="opacity:0.19999701">
                    <g
                       transform="translate(160,172)"
                       id="g6454">
                      <path
                         d="m 0,0 -128,0 c -6.6,0 -12,-5.4 -12,-12 l 0,-1 c 0,6.6 5.4,12 12,12 L 0,-1 c 6.6,0 12,-5.4 12,-12 l 0,1 C 12,-5.4 6.6,0 0,0"
                         style="fill:#ffffff;fill-opacity:1;fill-rule:nonzero;stroke:none"
                         id="path6456"
                         inkscape:connector-curvature="0" />
                    </g>
                  </g>
                </g>
              </g>
              <g
                 id="g6458">
                <g
                   id="g6460" />
                <g
                   id="g6462">
                  <g
                     clip-path="url(#clipPath4205)"
                     id="g6464"
                     style="opacity:0.10000598">
                    <g
                       transform="translate(160,20)"
                       id="g6466">
                      <path
                         d="m 0,0 -128,0 c -6.6,0 -12,5.4 -12,12 l 0,1 c 0,-6.6 5.4,-12 12,-12 L 0,1 c 6.6,0 12,5.4 12,12 l 0,-1 C 12,5.4 6.6,0 0,0"
                         style="fill:#212121;fill-opacity:1;fill-rule:nonzero;stroke:none"
                         id="path6468"
                         inkscape:connector-curvature="0" />
                    </g>
                  </g>
                </g>
              </g>
            </g>
          </g>
        </g>
        <g
           id="g4568"
           transform="translate(0,-6.5083328)" />
      </g>
      <path
         inkscape:connector-curvature="0"
         id="path4318"
         d="m 735.64238,750.36165 c -9.36043,-16.93777 -63.93463,-38.87292 -97.15068,-39.04792 -18.30318,-0.0966 -53.38573,6.82327 -77.96113,15.37715 l -44.68253,15.55255 -21.99812,-17.5488 c -31.11216,-24.81946 -114.46268,-24.51781 -163.78792,0.59251 -19.07993,9.71318 -37.55455,15.68092 -41.05472,13.26174 -3.50019,-2.41898 -6.36395,-84.74444 -6.36395,-182.94529 l 0,-178.54696 37.48471,-14.4535 c 50.17942,-19.34825 136.1799,-19.53645 167.91408,-0.36735 22.48972,13.58493 25.0244,13.50736 70.36655,-2.15471 56.10471,-19.37972 97.02614,-20.57585 138.88437,-4.05978 58.50716,23.08545 56.5867,15.74945 56.5867,216.14802 0,163.38062 -4.12886,203.72206 -18.23736,178.19247 z m -3.1825,-191.32644 0,-160.08816 -30.34475,-15.40402 c -36.83051,-18.69636 -83.08199,-19.90623 -132.5781,-3.46805 l -36.99563,12.28664 0,160.24271 c 0,149.39965 0.84554,159.8677 12.4949,154.70142 38.1333,-16.91096 95.3989,-22.46441 133.44947,-12.9414 21.69788,5.43044 41.30163,13.22277 43.56379,17.31623 2.26222,4.09341 5.53006,7.4427 7.26177,7.4427 1.73172,0 3.14855,-72.03968 3.14855,-160.08807 z m -309.72221,120.1636 c 17.44772,0 43.2576,5.38984 57.3554,11.97733 14.09792,6.58754 26.91745,11.97733 28.48801,11.97733 1.57056,0 1.98144,-67.37246 0.913,-149.71659 l -1.94245,-149.71665 -32.12975,-18.58038 c -27.12563,-15.68657 -39.35804,-17.93545 -78.53943,-14.43921 -25.5253,2.27767 -56.85185,8.29545 -69.61442,13.37294 l -23.20483,9.23163 0,158.07923 0,158.07931 43.47575,-15.13248 c 23.91172,-8.32286 57.75113,-15.13246 75.19872,-15.13246 z"
         style="fill:#ffffff;fill-opacity:1" />
    </g>
  </g>
</svg>
