<?xml version="1.0" encoding="UTF-8" standalone="no"?>
<!-- Created with Inkscape (http://www.inkscape.org/) -->

<svg
   xmlns:dc="http://purl.org/dc/elements/1.1/"
   xmlns:cc="http://creativecommons.org/ns#"
   xmlns:rdf="http://www.w3.org/1999/02/22-rdf-syntax-ns#"
   xmlns:svg="http://www.w3.org/2000/svg"
   xmlns="http://www.w3.org/2000/svg"
   xmlns:xlink="http://www.w3.org/1999/xlink"
   xmlns:sodipodi="http://sodipodi.sourceforge.net/DTD/sodipodi-0.dtd"
   xmlns:inkscape="http://www.inkscape.org/namespaces/inkscape"
   width="210mm"
   height="297mm"
   viewBox="0 0 744.09448819 1052.3622047"
   id="svg2"
   version="1.1"
   inkscape:version="0.91 r13725"
   sodipodi:docname="hicon.svg"
   enable-background="new">
  <defs
     id="defs4">
    <color-profile
       name="Generic-RGB-Profile"
       xlink:href="/System/Library/ColorSync/Profiles/Generic RGB Profile.icc"
       id="color-profile4259" />
    <clipPath
       id="clipPath4169"
       clipPathUnits="userSpaceOnUse">
      <path
         inkscape:connector-curvature="0"
         id="path4171"
         d="M 0,192 192,192 192,0 0,0 0,192 Z" />
    </clipPath>
    <clipPath
       id="clipPath4181"
       clipPathUnits="userSpaceOnUse">
      <path
         inkscape:connector-curvature="0"
         id="path4183"
         d="M 0,192 192,192 192,0 0,0 0,192 Z" />
    </clipPath>
    <clipPath
       id="clipPath4189"
       clipPathUnits="userSpaceOnUse">
      <path
         inkscape:connector-curvature="0"
         id="path4191"
         d="m 20,172 152,0 0,-13 -152,0 0,13 z" />
    </clipPath>
    <clipPath
       id="clipPath4205"
       clipPathUnits="userSpaceOnUse">
      <path
         inkscape:connector-curvature="0"
         id="path4207"
         d="m 20,33 152,0 0,-13 -152,0 0,13 z" />
    </clipPath>
    <clipPath
       id="clipPath4221"
       clipPathUnits="userSpaceOnUse">
      <path
         inkscape:connector-curvature="0"
         id="path4223"
         d="M 0,192 192,192 192,0 0,0 0,192 Z" />
    </clipPath>
    <clipPath
       id="clipPath4229"
       clipPathUnits="userSpaceOnUse">
      <path
         inkscape:connector-curvature="0"
         id="path4231"
         d="m 44,144 104.16,0 0,-104.16 L 44,39.84 44,144 Z" />
    </clipPath>
    <clipPath
       id="clipPath4233"
       clipPathUnits="userSpaceOnUse">
      <path
         inkscape:connector-curvature="0"
         id="path4235"
         d="m 44,144 104.16,0 0,-104.16 L 44,39.84 44,144 Z" />
    </clipPath>
    <mask
       id="mask4237"
       height="1"
       width="1"
       y="0"
       x="0"
       maskUnits="userSpaceOnUse">
      <g
         id="g4239">
        <g
           id="g4241"
           clip-path="url(#clipPath4233)">
          <g
             id="g4243">
            <g
               id="g4245"
               transform="matrix(104.16,0,0,104.16,44.000004,39.840002)">
              <image
                 sodipodi:absref="/Users/gldraphael/Desktop/Desktop/Product_Icon_StickerSheet/material_template_ic_product_icon_192px_light_light_img0.png"
                 xlink:href="Desktop/Product_Icon_StickerSheet/material_template_ic_product_icon_192px_light_light_img0.png"
                 width="1"
                 height="1"
                 preserveAspectRatio="none"
                 transform="matrix(1,0,0,-1,0,1)"
                 id="image4247" />
            </g>
          </g>
        </g>
      </g>
    </mask>
    <mask
       id="mask4249"
       height="1"
       width="1"
       y="0"
       x="0"
       maskUnits="userSpaceOnUse">
      <image
         sodipodi:absref="/Users/gldraphael/Desktop/Desktop/Product_Icon_StickerSheet/material_template_ic_product_icon_192px_light_light_img1.png"
         xlink:href="Desktop/Product_Icon_StickerSheet/material_template_ic_product_icon_192px_light_light_img1.png"
         width="1"
         height="1"
         preserveAspectRatio="none"
         id="image4251" />
    </mask>
    <clipPath
       id="clipPath4275"
       clipPathUnits="userSpaceOnUse">
      <path
         inkscape:connector-curvature="0"
         id="path4277"
         d="M 0,192 192,192 192,0 0,0 0,192 Z" />
    </clipPath>
    <clipPath
       id="clipPath4283"
       clipPathUnits="userSpaceOnUse">
      <path
         inkscape:connector-curvature="0"
         id="path4285"
         d="m 56,136 80,0 0,-40.5 -80,0 0,40.5 z" />
    </clipPath>
    <clipPath
       id="clipPath4299"
       clipPathUnits="userSpaceOnUse">
      <path
         inkscape:connector-curvature="0"
         id="path4301"
         d="m 56,95.5 80,0 0,-40.5 -80,0 0,40.5 z" />
    </clipPath>
    <clipPath
       id="clipPath4315"
       clipPathUnits="userSpaceOnUse">
      <path
         inkscape:connector-curvature="0"
         id="path4317"
         d="m 32,172 c -6.6,0 -12,-5.4 -12,-12 l 0,0 0,-128 c 0,-6.6 5.4,-12 12,-12 l 0,0 128,0 c 6.6,0 12,5.4 12,12 l 0,0 0,128 c 0,6.6 -5.4,12 -12,12 l 0,0 -128,0 z" />
    </clipPath>
    <clipPath
       id="clipPath4323"
       clipPathUnits="userSpaceOnUse">
      <path
         inkscape:connector-curvature="0"
         id="path4325"
         d="m -32768,32767 65535,0 0,-65535 -65535,0 0,65535 z" />
    </clipPath>
    <radialGradient
       id="radialGradient4327"
       spreadMethod="pad"
       gradientTransform="matrix(144.69165,-144.69165,-144.69165,-144.69165,23.767599,168.06676)"
       gradientUnits="userSpaceOnUse"
       r="1"
       cy="0"
       cx="0"
       fy="0"
       fx="0">
      <stop
         id="stop4329"
         offset="0"
         style="stop-opacity:0.09999237;stop-color:#ffffff" />
      <stop
         id="stop4331"
         offset="1"
         style="stop-opacity:0;stop-color:#ffffff" />
    </radialGradient>
    <mask
       id="mask4333"
       height="1"
       width="1"
       y="0"
       x="0"
       maskUnits="userSpaceOnUse">
      <g
         id="g4335">
        <g
           id="g4337"
           clip-path="url(#clipPath4323)">
          <g
             id="g4339">
            <g
               id="g4341">
              <path
                 inkscape:connector-curvature="0"
                 id="path4343"
                 style="fill:url(#radialGradient4327);stroke:none"
                 d="m -32768,32767 65535,0 0,-65535 -65535,0 0,65535 z" />
            </g>
          </g>
        </g>
      </g>
    </mask>
    <radialGradient
       id="radialGradient4349"
       spreadMethod="pad"
       gradientTransform="matrix(144.69165,-144.69165,-144.69165,-144.69165,23.767599,168.06676)"
       gradientUnits="userSpaceOnUse"
       r="1"
       cy="0"
       cx="0"
       fy="0"
       fx="0">
      <stop
         id="stop4351"
         offset="0"
         style="stop-opacity:1;stop-color:#ffffff" />
      <stop
         id="stop4353"
         offset="1"
         style="stop-opacity:1;stop-color:#ffffff" />
    </radialGradient>
    <clipPath
       id="clipPath4361"
       clipPathUnits="userSpaceOnUse">
      <path
         inkscape:connector-curvature="0"
         id="path4363"
         d="M 0,192 192,192 192,0 0,0 0,192 Z" />
    </clipPath>
    <clipPath
       id="clipPath4371"
       clipPathUnits="userSpaceOnUse">
      <path
         inkscape:connector-curvature="0"
         id="path4373"
         d="M 0,192 192,192 192,0 0,0 0,192 Z" />
    </clipPath>
    <clipPath
       id="clipPath4379"
       clipPathUnits="userSpaceOnUse">
      <path
         inkscape:connector-curvature="0"
         id="path4381"
         d="M 0,192 192,192 192,0 0,0 0,192 Z" />
    </clipPath>
    <clipPath
       id="clipPath4387"
       clipPathUnits="userSpaceOnUse">
      <path
         inkscape:connector-curvature="0"
         id="path4389"
         d="M 0,192 192,192 192,0 0,0 0,192 Z" />
    </clipPath>
    <clipPath
       id="clipPath4391"
       clipPathUnits="userSpaceOnUse">
      <path
         inkscape:connector-curvature="0"
         id="path4393"
         d="M 0,192 192,192 192,0 0,0 0,192 Z" />
    </clipPath>
    <clipPath
       id="clipPath4395"
       clipPathUnits="userSpaceOnUse">
      <path
         inkscape:connector-curvature="0"
         id="path4397"
         d="M 192,192 0,192 0,0 l 192,0 0,192 z" />
    </clipPath>
    <clipPath
       id="clipPath4795"
       clipPathUnits="userSpaceOnUse">
      <path
         inkscape:connector-curvature="0"
         id="path4797"
         d="M 0,192 192,192 192,0 0,0 0,192 Z" />
    </clipPath>
    <clipPath
       id="clipPath4805"
       clipPathUnits="userSpaceOnUse">
      <path
         inkscape:connector-curvature="0"
         id="path4807"
         d="M -1.52588e-4,192 192,192 192,-1.83105e-4 l -192.000152588,0 0,192.000183105 z" />
    </clipPath>
    <clipPath
       id="clipPath4813"
       clipPathUnits="userSpaceOnUse">
      <path
         inkscape:connector-curvature="0"
         id="path4815"
         d="M -1.52588e-4,192 192,192 192,-1.83105e-4 l -192.000152588,0 0,192.000183105 z" />
    </clipPath>
    <clipPath
       id="clipPath4817"
       clipPathUnits="userSpaceOnUse">
      <path
         inkscape:connector-curvature="0"
         id="path4819"
         d="M 0,192 192,192 192,0 0,0 0,192 Z" />
    </clipPath>
    <clipPath
       id="clipPath4821"
       clipPathUnits="userSpaceOnUse">
      <path
         inkscape:connector-curvature="0"
         id="path4823"
         d="M 0,192 192,192 192,0 0,0 0,192 Z" />
    </clipPath>
    <clipPath
       id="clipPath4825"
       clipPathUnits="userSpaceOnUse">
      <path
         inkscape:connector-curvature="0"
         id="path4827"
         d="M 0,192 192,192 192,0 0,0 0,192 Z" />
    </clipPath>
    <clipPath
       id="clipPath4903"
       clipPathUnits="userSpaceOnUse">
      <path
         inkscape:connector-curvature="0"
         id="path4905"
         d="M 0,192 192,192 192,0 0,0 0,192 Z" />
    </clipPath>
    <clipPath
       id="clipPath4913"
       clipPathUnits="userSpaceOnUse">
      <path
         inkscape:connector-curvature="0"
         id="path4915"
         d="M 0,192 192,192 192,0 0,0 0,192 Z" />
    </clipPath>
    <clipPath
       id="clipPath4921"
       clipPathUnits="userSpaceOnUse">
      <path
         inkscape:connector-curvature="0"
         id="path4923"
         d="M 0,192 192,192 192,0 0,0 0,192 Z" />
    </clipPath>
  </defs>
  <sodipodi:namedview
     id="base"
     pagecolor="#ffffff"
     bordercolor="#666666"
     borderopacity="1.0"
     inkscape:pageopacity="0.0"
     inkscape:pageshadow="2"
     inkscape:zoom="0.25"
     inkscape:cx="1630.8674"
     inkscape:cy="996.86234"
     inkscape:document-units="px"
     inkscape:current-layer="layer3"
     showgrid="true"
     inkscape:window-width="1280"
     inkscape:window-height="703"
     inkscape:window-x="0"
     inkscape:window-y="1"
     inkscape:window-maximized="1"
     guidetolerance="10000"
     units="px">
    <inkscape:grid
       type="xygrid"
       id="grid5585" />
  </sodipodi:namedview>
  <metadata
     id="metadata7">
    <rdf:RDF>
      <cc:Work
         rdf:about="">
        <dc:format>image/svg+xml</dc:format>
        <dc:type
           rdf:resource="http://purl.org/dc/dcmitype/StillImage" />
        <dc:title></dc:title>
      </cc:Work>
    </rdf:RDF>
  </metadata>
  <g
     inkscape:groupmode="layer"
     id="layer2"
     inkscape:label="reference"
     style="display:inline"
     sodipodi:insensitive="true">
    <g
       id="g5569"
       transform="translate(-4.9856312,10.030617)">
      <g
         transform="matrix(1.25,0,0,-1.25,475,467.36221)"
         id="g4626">
        <g
           id="g4628"
           clip-path="url(#clipPath4169)">
          <g
             id="g4630"
             transform="translate(160,20)">
            <path
               d="m 0,0 -128,0 c -6.6,0 -12,5.4 -12,12 l 0,128 c 0,6.6 5.4,12 12,12 l 128,0 c 6.6,0 12,-5.4 12,-12 L 12,12 C 12,5.4 6.6,0 0,0"
               style="fill:#e0e0e0;fill-opacity:1;fill-rule:nonzero;stroke:none"
               id="path4632"
               inkscape:connector-curvature="0" />
          </g>
        </g>
      </g>
      <g
         transform="matrix(1.25,0,0,-1.25,475,467.36221)"
         id="g5224">
        <g
           id="g5226"
           clip-path="url(#clipPath4903)">
          <g
             id="g5228"
             transform="matrix(1,0,0,-1,0,192)">
            <g
               id="g5230">
              <g
                 id="g5232"
                 clip-path="url(#clipPath4913)">
                <g
                   id="g5234">
                  <g
                     id="g5236" />
                  <g
                     id="g5238">
                    <g
                       clip-path="url(#clipPath4921)"
                       id="g5240"
                       style="opacity:0.39999402">
                      <path
                         d="M 188,184 4,184 4,4 188,4 188,184 Z M 0,192 192,192 192,0 0,0 0,192 Z"
                         style="fill:#db4437;fill-opacity:1;fill-rule:nonzero;stroke:none"
                         id="path5242"
                         inkscape:connector-curvature="0" />
                    </g>
                  </g>
                </g>
              </g>
            </g>
          </g>
        </g>
      </g>
    </g>
  </g>
  <g
     inkscape:groupmode="layer"
     id="layer5"
     inkscape:label="back"
     style="display:none"
     sodipodi:insensitive="true">
    <path
       style="fill:#ffffff;fill-opacity:0;fill-rule:evenodd;stroke:#000000;stroke-width:0;stroke-linecap:butt;stroke-linejoin:miter;stroke-miterlimit:4;stroke-dasharray:none;stroke-opacity:1"
       d="m 475,242.3622 230,0 0,230.01083 -230,0 z"
       id="path5603"
       inkscape:connector-curvature="0"
       inkscape:export-xdpi="90"
       inkscape:export-ydpi="90"
       inkscape:export-filename="/Users/gldraphael/Desktop/test.png" />
  </g>
  <g
     inkscape:groupmode="layer"
     id="layer3"
     inkscape:label="logo"
     style="display:inline">
    <g
       id="g4594"
       transform="translate(19.377807,38.785171)"
       inkscape:export-filename="/Users/gldraphael/Desktop/test.png"
       inkscape:export-xdpi="90"
       inkscape:export-ydpi="90">
      <g
         id="g7363">
        <g
           id="g6434"
           transform="matrix(1.25,0,0,-1.25,450.71429,438.79077)"
           style="fill:#2196f3;fill-opacity:1">
          <g
             clip-path="url(#clipPath4169)"
             id="g6436"
             style="fill:#2196f3;fill-opacity:1">
            <g
               transform="translate(160,20)"
               id="g6438"
               style="fill:#2196f3;fill-opacity:1">
              <path
                 inkscape:connector-curvature="0"
                 id="path6440"
                 style="fill:#b71c1c;fill-opacity:1;fill-rule:nonzero;stroke:none"
                 d="m 0,0 -128,0 c -6.6,0 -12,5.4 -12,12 l 0,128 c 0,6.6 5.4,12 12,12 l 128,0 c 6.6,0 12,-5.4 12,-12 L 12,12 C 12,5.4 6.6,0 0,0" />
            </g>
          </g>
        </g>
        <g
           id="g6442"
           transform="matrix(1.25,0,0,-1.25,450.71429,438.79077)">
          <g
             clip-path="url(#clipPath4181)"
             id="g6444">
            <g
               id="g6446">
              <g
                 id="g6448" />
              <g
                 id="g6450">
                <g
                   style="opacity:0.19999701"
                   id="g6452"
                   clip-path="url(#clipPath4189)">
                  <g
                     id="g6454"
                     transform="translate(160,172)">
                    <path
                       inkscape:connector-curvature="0"
                       id="path6456"
                       style="fill:#ffffff;fill-opacity:1;fill-rule:nonzero;stroke:none"
                       d="m 0,0 -128,0 c -6.6,0 -12,-5.4 -12,-12 l 0,-1 c 0,6.6 5.4,12 12,12 L 0,-1 c 6.6,0 12,-5.4 12,-12 l 0,1 C 12,-5.4 6.6,0 0,0" />
                  </g>
                </g>
              </g>
            </g>
            <g
               id="g6458">
              <g
                 id="g6460" />
              <g
                 id="g6462">
                <g
                   style="opacity:0.10000598"
                   id="g6464"
                   clip-path="url(#clipPath4205)">
                  <g
                     id="g6466"
                     transform="translate(160,20)">
                    <path
                       inkscape:connector-curvature="0"
                       id="path6468"
                       style="fill:#212121;fill-opacity:1;fill-rule:nonzero;stroke:none"
                       d="m 0,0 -128,0 c -6.6,0 -12,5.4 -12,12 l 0,1 c 0,-6.6 5.4,-12 12,-12 L 0,1 c 6.6,0 12,5.4 12,12 l 0,-1 C 12,5.4 6.6,0 0,0" />
                  </g>
                </g>
              </g>
            </g>
          </g>
        </g>
      </g>
      <g
         transform="translate(0,-6.5083328)"
         id="g4568" />
    </g>
    <path
       style="fill:#ffffff;fill-opacity:1"
       d="m 641.95843,403.48599 c -2.19385,-3.92381 -14.98468,-9.00531 -22.76969,-9.04585 -4.28981,-0.0224 -12.51228,1.58068 -18.27214,3.56227 l -10.47247,3.60291 -5.15581,-4.06536 c -7.29191,-5.74968 -26.82719,-5.6798 -38.38779,0.13726 -4.47186,2.25016 -8.80185,3.63265 -9.6222,3.07222 -0.82036,-0.56038 -1.49155,-19.63192 -1.49155,-42.38115 l 0,-41.36223 8.78548,-3.3483 c 11.7608,-4.48222 31.91716,-4.52582 39.35486,-0.0851 5.27103,3.14709 5.86509,3.12912 16.49216,-0.49916 13.14954,-4.48951 22.7405,-4.76661 32.55102,-0.94049 13.71262,5.34798 13.26251,3.64852 13.26251,50.0729 0,37.84879 -0.9677,47.1943 -4.27438,41.28011 z m -0.7459,-44.32273 0,-37.08606 -7.11205,-3.5685 c -8.63215,-4.3312 -19.47234,-4.61148 -31.07299,-0.80341 l -8.67085,2.84633 0,37.12186 c 0,34.60996 0.19817,37.03499 2.92849,35.83817 8.93749,-3.9176 22.35912,-5.20411 31.27722,-2.99801 5.08544,1.25802 9.68007,3.06319 10.21026,4.01148 0.53021,0.94828 1.29611,1.72418 1.70198,1.72418 0.40587,0 0.73794,-16.68873 0.73794,-37.08604 z m -72.59114,27.83713 c 4.08931,0 10.1385,1.24861 13.44267,2.77467 3.3042,1.52607 6.30878,2.77467 6.67688,2.77467 0.3681,0 0.4644,-15.60752 0.21398,-34.68338 l -0.45526,-34.68339 -7.53041,-4.30434 c -6.35757,-3.63395 -9.22454,-4.15493 -18.40768,-3.34499 -5.98249,0.52765 -13.32465,1.92173 -16.31588,3.09798 l -5.43863,2.1386 0,36.62067 0,36.62069 10.18963,-3.50559 c 5.60431,-1.92808 13.53542,-3.50559 17.6247,-3.50559 z"
       id="path4318"
       inkscape:connector-curvature="0" />
  </g>
</svg>
