<?xml version="1.0" encoding="UTF-8" standalone="no"?>
<!-- Created with Inkscape (http://www.inkscape.org/) -->

<svg
   xmlns:dc="http://purl.org/dc/elements/1.1/"
   xmlns:cc="http://creativecommons.org/ns#"
   xmlns:rdf="http://www.w3.org/1999/02/22-rdf-syntax-ns#"
   xmlns:svg="http://www.w3.org/2000/svg"
   xmlns="http://www.w3.org/2000/svg"
   xmlns:xlink="http://www.w3.org/1999/xlink"
   xmlns:sodipodi="http://sodipodi.sourceforge.net/DTD/sodipodi-0.dtd"
   xmlns:inkscape="http://www.inkscape.org/namespaces/inkscape"
   width="1024"
   height="1024"
   viewBox="0 0 1024 1024"
   id="svg2"
   version="1.1"
   inkscape:version="0.91 r13725"
   sodipodi:docname="icon.svg"
   style="enable-background:new">
  <defs
     id="defs4">
    <linearGradient
       inkscape:collect="always"
       id="linearGradient4331">
      <stop
         style="stop-color:#cccccc;stop-opacity:1;"
         offset="0"
         id="stop4333" />
      <stop
         style="stop-color:#cccccc;stop-opacity:0;"
         offset="1"
         id="stop4335" />
    </linearGradient>
    <color-profile
       name="Generic-RGB-Profile"
       xlink:href="/System/Library/ColorSync/Profiles/Generic RGB Profile.icc"
       id="color-profile4259" />
    <clipPath
       id="clipPath4169"
       clipPathUnits="userSpaceOnUse">
      <path
         inkscape:connector-curvature="0"
         id="path4171"
         d="M 0,192 192,192 192,0 0,0 0,192 Z" />
    </clipPath>
    <clipPath
       id="clipPath4181"
       clipPathUnits="userSpaceOnUse">
      <path
         inkscape:connector-curvature="0"
         id="path4183"
         d="M 0,192 192,192 192,0 0,0 0,192 Z" />
    </clipPath>
    <clipPath
       id="clipPath4189"
       clipPathUnits="userSpaceOnUse">
      <path
         inkscape:connector-curvature="0"
         id="path4191"
         d="m 20,172 152,0 0,-13 -152,0 0,13 z" />
    </clipPath>
    <clipPath
       id="clipPath4205"
       clipPathUnits="userSpaceOnUse">
      <path
         inkscape:connector-curvature="0"
         id="path4207"
         d="m 20,33 152,0 0,-13 -152,0 0,13 z" />
    </clipPath>
    <clipPath
       id="clipPath4221"
       clipPathUnits="userSpaceOnUse">
      <path
         inkscape:connector-curvature="0"
         id="path4223"
         d="M 0,192 192,192 192,0 0,0 0,192 Z" />
    </clipPath>
    <clipPath
       id="clipPath4229"
       clipPathUnits="userSpaceOnUse">
      <path
         inkscape:connector-curvature="0"
         id="path4231"
         d="m 44,144 104.16,0 0,-104.16 L 44,39.84 44,144 Z" />
    </clipPath>
    <clipPath
       id="clipPath4233"
       clipPathUnits="userSpaceOnUse">
      <path
         inkscape:connector-curvature="0"
         id="path4235"
         d="m 44,144 104.16,0 0,-104.16 L 44,39.84 44,144 Z" />
    </clipPath>
    <mask
       id="mask4237"
       height="1"
       width="1"
       y="0"
       x="0"
       maskUnits="userSpaceOnUse">
      <g
         id="g4239">
        <g
           id="g4241"
           clip-path="url(#clipPath4233)">
          <g
             id="g4243">
            <g
               id="g4245"
               transform="matrix(104.16,0,0,104.16,44.000004,39.840002)">
              <image
                 sodipodi:absref="/Users/gldraphael/Desktop/appicon/Desktop/Product_Icon_StickerSheet/material_template_ic_product_icon_192px_light_light_img0.png"
                 xlink:href="Desktop/Product_Icon_StickerSheet/material_template_ic_product_icon_192px_light_light_img0.png"
                 id="image4247"
                 transform="matrix(1,0,0,-1,0,1)"
                 preserveAspectRatio="none"
                 height="1"
                 width="1" />
            </g>
          </g>
        </g>
      </g>
    </mask>
    <mask
       id="mask4249"
       height="1"
       width="1"
       y="0"
       x="0"
       maskUnits="userSpaceOnUse">
      <image
         sodipodi:absref="/Users/gldraphael/Desktop/appicon/Desktop/Product_Icon_StickerSheet/material_template_ic_product_icon_192px_light_light_img1.png"
         xlink:href="Desktop/Product_Icon_StickerSheet/material_template_ic_product_icon_192px_light_light_img1.png"
         id="image4251"
         preserveAspectRatio="none"
         height="1"
         width="1" />
    </mask>
    <clipPath
       id="clipPath4275"
       clipPathUnits="userSpaceOnUse">
      <path
         inkscape:connector-curvature="0"
         id="path4277"
         d="M 0,192 192,192 192,0 0,0 0,192 Z" />
    </clipPath>
    <clipPath
       id="clipPath4283"
       clipPathUnits="userSpaceOnUse">
      <path
         inkscape:connector-curvature="0"
         id="path4285"
         d="m 56,136 80,0 0,-40.5 -80,0 0,40.5 z" />
    </clipPath>
    <clipPath
       id="clipPath4299"
       clipPathUnits="userSpaceOnUse">
      <path
         inkscape:connector-curvature="0"
         id="path4301"
         d="m 56,95.5 80,0 0,-40.5 -80,0 0,40.5 z" />
    </clipPath>
    <clipPath
       id="clipPath4315"
       clipPathUnits="userSpaceOnUse">
      <path
         inkscape:connector-curvature="0"
         id="path4317"
         d="m 32,172 c -6.6,0 -12,-5.4 -12,-12 l 0,0 0,-128 c 0,-6.6 5.4,-12 12,-12 l 0,0 128,0 c 6.6,0 12,5.4 12,12 l 0,0 0,128 c 0,6.6 -5.4,12 -12,12 l 0,0 -128,0 z" />
    </clipPath>
    <clipPath
       id="clipPath4323"
       clipPathUnits="userSpaceOnUse">
      <path
         inkscape:connector-curvature="0"
         id="path4325"
         d="m -32768,32767 65535,0 0,-65535 -65535,0 0,65535 z" />
    </clipPath>
    <radialGradient
       id="radialGradient4327"
       spreadMethod="pad"
       gradientTransform="matrix(144.69165,-144.69165,-144.69165,-144.69165,23.767599,168.06676)"
       gradientUnits="userSpaceOnUse"
       r="1"
       cy="0"
       cx="0"
       fy="0"
       fx="0">
      <stop
         id="stop4329"
         offset="0"
         style="stop-opacity:0.09999237;stop-color:#ffffff" />
      <stop
         id="stop4331"
         offset="1"
         style="stop-opacity:0;stop-color:#ffffff" />
    </radialGradient>
    <mask
       id="mask4333"
       height="1"
       width="1"
       y="0"
       x="0"
       maskUnits="userSpaceOnUse">
      <g
         id="g4335">
        <g
           id="g4337"
           clip-path="url(#clipPath4323)">
          <g
             id="g4339">
            <g
               id="g4341">
              <path
                 inkscape:connector-curvature="0"
                 id="path4343"
                 style="fill:url(#radialGradient4327);stroke:none"
                 d="m -32768,32767 65535,0 0,-65535 -65535,0 0,65535 z" />
            </g>
          </g>
        </g>
      </g>
    </mask>
    <radialGradient
       id="radialGradient4349"
       spreadMethod="pad"
       gradientTransform="matrix(144.69165,-144.69165,-144.69165,-144.69165,23.767599,168.06676)"
       gradientUnits="userSpaceOnUse"
       r="1"
       cy="0"
       cx="0"
       fy="0"
       fx="0">
      <stop
         id="stop4351"
         offset="0"
         style="stop-opacity:1;stop-color:#ffffff" />
      <stop
         id="stop4353"
         offset="1"
         style="stop-opacity:1;stop-color:#ffffff" />
    </radialGradient>
    <clipPath
       id="clipPath4361"
       clipPathUnits="userSpaceOnUse">
      <path
         inkscape:connector-curvature="0"
         id="path4363"
         d="M 0,192 192,192 192,0 0,0 0,192 Z" />
    </clipPath>
    <clipPath
       id="clipPath4371"
       clipPathUnits="userSpaceOnUse">
      <path
         inkscape:connector-curvature="0"
         id="path4373"
         d="M 0,192 192,192 192,0 0,0 0,192 Z" />
    </clipPath>
    <clipPath
       id="clipPath4379"
       clipPathUnits="userSpaceOnUse">
      <path
         inkscape:connector-curvature="0"
         id="path4381"
         d="M 0,192 192,192 192,0 0,0 0,192 Z" />
    </clipPath>
    <clipPath
       id="clipPath4387"
       clipPathUnits="userSpaceOnUse">
      <path
         inkscape:connector-curvature="0"
         id="path4389"
         d="M 0,192 192,192 192,0 0,0 0,192 Z" />
    </clipPath>
    <clipPath
       id="clipPath4391"
       clipPathUnits="userSpaceOnUse">
      <path
         inkscape:connector-curvature="0"
         id="path4393"
         d="M 0,192 192,192 192,0 0,0 0,192 Z" />
    </clipPath>
    <clipPath
       id="clipPath4395"
       clipPathUnits="userSpaceOnUse">
      <path
         inkscape:connector-curvature="0"
         id="path4397"
         d="M 192,192 0,192 0,0 l 192,0 0,192 z" />
    </clipPath>
    <clipPath
       id="clipPath4795"
       clipPathUnits="userSpaceOnUse">
      <path
         inkscape:connector-curvature="0"
         id="path4797"
         d="M 0,192 192,192 192,0 0,0 0,192 Z" />
    </clipPath>
    <clipPath
       id="clipPath4805"
       clipPathUnits="userSpaceOnUse">
      <path
         inkscape:connector-curvature="0"
         id="path4807"
         d="M -1.52588e-4,192 192,192 192,-1.83105e-4 l -192.000152588,0 0,192.000183105 z" />
    </clipPath>
    <clipPath
       id="clipPath4813"
       clipPathUnits="userSpaceOnUse">
      <path
         inkscape:connector-curvature="0"
         id="path4815"
         d="M -1.52588e-4,192 192,192 192,-1.83105e-4 l -192.000152588,0 0,192.000183105 z" />
    </clipPath>
    <clipPath
       id="clipPath4817"
       clipPathUnits="userSpaceOnUse">
      <path
         inkscape:connector-curvature="0"
         id="path4819"
         d="M 0,192 192,192 192,0 0,0 0,192 Z" />
    </clipPath>
    <clipPath
       id="clipPath4821"
       clipPathUnits="userSpaceOnUse">
      <path
         inkscape:connector-curvature="0"
         id="path4823"
         d="M 0,192 192,192 192,0 0,0 0,192 Z" />
    </clipPath>
    <clipPath
       id="clipPath4825"
       clipPathUnits="userSpaceOnUse">
      <path
         inkscape:connector-curvature="0"
         id="path4827"
         d="M 0,192 192,192 192,0 0,0 0,192 Z" />
    </clipPath>
    <clipPath
       id="clipPath4903"
       clipPathUnits="userSpaceOnUse">
      <path
         inkscape:connector-curvature="0"
         id="path4905"
         d="M 0,192 192,192 192,0 0,0 0,192 Z" />
    </clipPath>
    <clipPath
       id="clipPath4913"
       clipPathUnits="userSpaceOnUse">
      <path
         inkscape:connector-curvature="0"
         id="path4915"
         d="M 0,192 192,192 192,0 0,0 0,192 Z" />
    </clipPath>
    <clipPath
       id="clipPath4921"
       clipPathUnits="userSpaceOnUse">
      <path
         inkscape:connector-curvature="0"
         id="path4923"
         d="M 0,192 192,192 192,0 0,0 0,192 Z" />
    </clipPath>
    <linearGradient
       inkscape:collect="always"
       xlink:href="#linearGradient4331"
       id="linearGradient4337"
       x1="704"
       y1="540.36218"
       x2="544"
       y2="540.36218"
       gradientUnits="userSpaceOnUse" />
    <linearGradient
       inkscape:collect="always"
       xlink:href="#linearGradient4331"
       id="linearGradient4354"
       x1="480"
       y1="540.36218"
       x2="384"
       y2="540.36218"
       gradientUnits="userSpaceOnUse" />
  </defs>
  <sodipodi:namedview
     id="base"
     pagecolor="#ffffff"
     bordercolor="#666666"
     borderopacity="1.0"
     inkscape:pageopacity="0.0"
     inkscape:pageshadow="2"
     inkscape:zoom="11.313708"
     inkscape:cx="712.42287"
     inkscape:cy="326.72778"
     inkscape:document-units="px"
     inkscape:current-layer="layer3"
     showgrid="false"
     inkscape:window-width="1280"
     inkscape:window-height="703"
     inkscape:window-x="0"
     inkscape:window-y="1"
     inkscape:window-maximized="1"
     guidetolerance="10"
     units="px"
     inkscape:snap-path-clip="true"
     inkscape:snap-path-mask="true"
     objecttolerance="20"
     inkscape:snap-perpendicular="true"
     inkscape:snap-tangential="true"
     gridtolerance="10">
    <inkscape:grid
       type="xygrid"
       id="grid5585"
       spacingx="0.8"
       spacingy="0.8" />
  </sodipodi:namedview>
  <metadata
     id="metadata7">
    <rdf:RDF>
      <cc:Work
         rdf:about="">
        <dc:format>image/svg+xml</dc:format>
        <dc:type
           rdf:resource="http://purl.org/dc/dcmitype/StillImage" />
        <dc:title></dc:title>
      </cc:Work>
    </rdf:RDF>
  </metadata>
  <g
     inkscape:groupmode="layer"
     id="layer2"
     inkscape:label="reference"
     style="display:inline"
     transform="translate(0,-28.362161)"
     sodipodi:insensitive="true">
    <g
       id="g5569"
       transform="matrix(4.2666666,0,0,4.3166666,-2024.6523,-950.05404)">
      <g
         transform="matrix(1.25,0,0,-1.25,475,467.36221)"
         id="g4626">
        <g
           id="g4628"
           clip-path="url(#clipPath4169)">
          <g
             id="g4630"
             transform="translate(160,20)">
            <path
               d="m 0,0 -128,0 c -6.6,0 -12,5.4 -12,12 l 0,128 c 0,6.6 5.4,12 12,12 l 128,0 c 6.6,0 12,-5.4 12,-12 L 12,12 C 12,5.4 6.6,0 0,0"
               style="fill:#e0e0e0;fill-opacity:1;fill-rule:nonzero;stroke:none"
               id="path4632"
               inkscape:connector-curvature="0" />
          </g>
        </g>
      </g>
      <g
         transform="matrix(1.25,0,0,-1.25,475,467.36221)"
         id="g5224">
        <g
           id="g5226"
           clip-path="url(#clipPath4903)">
          <g
             id="g5228"
             transform="matrix(1,0,0,-1,0,192)">
            <g
               id="g5230">
              <g
                 id="g5232"
                 clip-path="url(#clipPath4913)">
                <g
                   id="g5234">
                  <g
                     id="g5236" />
                  <g
                     id="g5238">
                    <g
                       clip-path="url(#clipPath4921)"
                       id="g5240"
                       style="opacity:0.39999402">
                      <path
                         d="M 188,184 4,184 4,4 188,4 188,184 Z M 0,192 192,192 192,0 0,0 0,192 Z"
                         style="fill:#db4437;fill-opacity:1;fill-rule:nonzero;stroke:none"
                         id="path5242"
                         inkscape:connector-curvature="0" />
                    </g>
                  </g>
                </g>
              </g>
            </g>
          </g>
        </g>
      </g>
    </g>
  </g>
  <g
     inkscape:groupmode="layer"
     id="layer5"
     inkscape:label="back"
     style="display:inline"
     transform="translate(0,-28.362161)"
     sodipodi:insensitive="true">
    <path
       style="fill:#ffffff;fill-opacity:0;fill-rule:evenodd;stroke:#000000;stroke-width:0;stroke-linecap:butt;stroke-linejoin:miter;stroke-miterlimit:4;stroke-dasharray:none;stroke-opacity:1"
       d="m 475,242.3622 230,0 0,230.01083 -230,0 z"
       id="path5603"
       inkscape:connector-curvature="0"
       inkscape:export-xdpi="90"
       inkscape:export-ydpi="90"
       inkscape:export-filename="/Users/gldraphael/Desktop/test.png" />
  </g>
  <g
     inkscape:groupmode="layer"
     id="layer3"
     inkscape:label="logo"
     style="display:inline"
     transform="translate(0,-28.362161)">
    <g
       transform="matrix(4.3790813,0,0,4.3804635,-1987.0552,-856.02845)"
       id="g7363">
      <g
         style="fill:#2196f3;fill-opacity:1"
         transform="matrix(1.25,0,0,-1.25,450.71429,438.79077)"
         id="g6434">
        <g
           style="fill:#2196f3;fill-opacity:1"
           id="g6436"
           clip-path="url(#clipPath4169)">
          <g
             style="fill:#2196f3;fill-opacity:1"
             id="g6438"
             transform="translate(160,20)">
            <path
               d="m 0,0 -128,0 c -6.6,0 -12,5.4 -12,12 l 0,128 c 0,6.6 5.4,12 12,12 l 128,0 c 6.6,0 12,-5.4 12,-12 L 12,12 C 12,5.4 6.6,0 0,0"
               style="fill:#b71c1c;fill-opacity:1;fill-rule:nonzero;stroke:none"
               id="path6440"
               inkscape:connector-curvature="0" />
          </g>
        </g>
      </g>
      <g
         transform="matrix(1.25,0,0,-1.25,450.71429,438.79077)"
         id="g6442">
        <g
           id="g6444"
           clip-path="url(#clipPath4181)">
          <g
             id="g6446">
            <g
               id="g6448" />
            <g
               id="g6450">
              <g
                 clip-path="url(#clipPath4189)"
                 id="g6452"
                 style="opacity:0.19999701">
                <g
                   transform="translate(160,172)"
                   id="g6454">
                  <path
                     d="m 0,0 -128,0 c -6.6,0 -12,-5.4 -12,-12 l 0,-1 c 0,6.6 5.4,12 12,12 L 0,-1 c 6.6,0 12,-5.4 12,-12 l 0,1 C 12,-5.4 6.6,0 0,0"
                     style="fill:#ffffff;fill-opacity:1;fill-rule:nonzero;stroke:none"
                     id="path6456"
                     inkscape:connector-curvature="0" />
                </g>
              </g>
            </g>
          </g>
          <g
             id="g6458">
            <g
               id="g6460" />
            <g
               id="g6462">
              <g
                 clip-path="url(#clipPath4205)"
                 id="g6464"
                 style="opacity:0.10000598">
                <g
                   transform="translate(160,20)"
                   id="g6466">
                  <path
                     d="m 0,0 -128,0 c -6.6,0 -12,5.4 -12,12 l 0,1 c 0,-6.6 5.4,-12 12,-12 L 0,1 c 6.6,0 12,5.4 12,12 l 0,-1 C 12,5.4 6.6,0 0,0"
                     style="fill:#212121;fill-opacity:1;fill-rule:nonzero;stroke:none"
                     id="path6468"
                     inkscape:connector-curvature="0" />
                </g>
              </g>
            </g>
          </g>
        </g>
      </g>
    </g>
    <g
       id="g4568"
       transform="matrix(4.3790813,0,0,4.3804635,-1987.0552,-884.53796)" />
    <path
       inkscape:connector-curvature="0"
       style="fill:#ffffff;fill-opacity:1"
       d="m 634.41016,330.92661 c -24.27548,0.10389 -50.46963,5.34338 -81.06055,15.79102 -46.53679,15.89354 -49.13844,15.97321 -72.2207,2.1875 -32.57029,-19.4524 -120.83639,-19.26115 -172.33789,0.37305 l -38.47266,14.66601 0,181.18555 c 0,99.65218 2.94079,183.19566 6.5332,185.65039 3.59239,2.45493 22.55213,-3.60225 42.13477,-13.45899 50.62482,-25.48143 136.17163,-25.78784 168.10351,-0.60156 l 22.57813,17.8086 45.85937,-15.78321 c 25.22289,-8.6803 61.23021,-15.70151 80.01563,-15.60351 34.0912,0.17758 90.10389,22.43691 99.71094,39.625 14.48022,25.90689 18.71679,-15.03092 18.71679,-180.82618 0,-203.36029 1.97249,-195.91516 -58.07617,-219.34179 -20.138,-7.85633 -40.06483,-11.76354 -61.48437,-11.67188 z"
       id="path4321" />
    <path
       style="fill:#800000;fill-rule:evenodd;stroke:none;stroke-width:1px;stroke-linecap:butt;stroke-linejoin:miter;stroke-opacity:1"
       d="m 621.97332,703.98891 c 62.58887,-59.31361 98.58593,-20.50374 128.62053,10.90654 l -0.88388,14.14213 -1.79084,10.31787 c -1.44784,5.35052 -4.4338,20.38044 -13.94229,0.81907 -14.0373,-15.76382 -54.23612,-31.78468 -85.64991,-36.10095 -2.58407,-0.35505 -18.00647,-1.09425 -26.35361,-0.0846 z"
       id="path4718"
       inkscape:connector-curvature="0"
       sodipodi:nodetypes="cccccscc" />
    <path
       style="fill:url(#linearGradient4337);fill-opacity:1"
       d="m 639.03423,331.08633 c 26.7793,0.8352 53.52283,9.8019 77.4039,18.50309 l 33.93298,17.373 6.36396,180.5366 c 3.49803,99.23402 1.80272,183.03878 -0.13389,183.03878 -1.93659,0 -5.59108,-3.77716 -8.12093,-8.39347 -2.52979,-4.61636 -31.33424,-17.54939 -48.71706,-19.52832 -63.68209,-7.24982 -147.34434,10.52353 -189.98913,29.59469 -13.02758,5.82623 17.02672,-23.47956 17.02672,-191.96345 l -2.75,-184.21242 42.6229,-13.85671 c 7.4156,-2.41081 43.09529,-12.00452 72.36055,-11.09179 z"
       id="path4319"
       inkscape:connector-curvature="0"
       sodipodi:nodetypes="sccsscasscss" />
    <path
       style="fill:url(#linearGradient4354);fill-opacity:1"
       d="m 408.17644,334.48124 c 42.99767,0.69061 64.12248,10.05972 64.12248,10.05972 l 33.91343,14.3902 6.72342,190.34729 c 3.38501,95.83338 -3.60679,185.33577 -3.60679,185.33577 -18.65326,-14.11453 -17.26531,-15.70116 -33.25549,-24.59323 -18.69495,-9.06401 -46.49768,-12.88611 -71.08592,-12.00223 -21.12728,0.75947 -64.31706,-0.36726 -93.29047,9.3242 l -56.67864,16.62002 9,-177.0736 0,-184.07363 28.11711,-10.74863 c 15.46417,-5.91241 53.42277,-12.91942 84.35131,-15.57162 11.86885,-1.01779 31.68956,-2.01426 31.68956,-2.01426 z"
       id="path4318"
       inkscape:connector-curvature="0"
       sodipodi:nodetypes="sccsccscccccss" />
  </g>
</svg>
